<svg xmlns="http://www.w3.org/2000/svg" viewBox="57.13999999999997 57.14 928.64 326.86">
  <path d="M140.89 131.43h-12.61a71.14 71.14 0 0 0-71.14 71.12V238a71.12 71.12 0 0 0 71.14 71.09h12.61A71.08 71.08 0 0 0 212 238v-35.45a71.1 71.1 0 0 0-71.11-71.12zM185 230.88a50.42 50.42 0 1 1-100.83 0v-21.23a50.42 50.42 0 1 1 100.83 0z
M134.56 356.21A50.21 50.21 0 0 1 102 344.26H64.48A69.51 69.51 0 0 0 79 364.16 70.62 70.62 0 0 0 128.28 384h12.61a70.76 70.76 0 0 0 49.24-19.86 69.29 69.29 0 0 0 14.55-19.9h-37.49a50.24 50.24 0 0 1-32.63 11.97z
M528 131.43h-12.65a71.12 71.12 0 0 0-71.12 71.12V238a71.11 71.11 0 0 0 71.12 71.12H528A71.09 71.09 0 0 0 599.06 238v-35.45A71.1 71.1 0 0 0 528 131.43zm44.11 99.47a50.42 50.42 0 1 1-100.83 0v-21.25a50.42 50.42 0 1 1 100.83 0z
M765.87 57.14v89.66a70.33 70.33 0 0 0-44.08-15.37h-12.62A71.14 71.14 0 0 0 638 202.55V238a71.12 71.12 0 0 0 71.14 71.09h12.62a71.06 71.06 0 0 0 71.1-71.09V57.14zm0 173.76a50.42 50.42 0 1 1-100.83 0v-21.25a50.42 50.42 0 1 1 100.83 0z
M334.39 131.43h-12.61a71.08 71.08 0 0 0-71.07 71.12V238a70.22 70.22 0 0 0 7.29 31.36c.92 1.9 1.9 3.73 3 5.51.63 1 1.23 1.94 1.88 2.92a61.78 61.78 0 0 0 5.55 7.12c.65.74 1.3 1.46 2 2.16.35.39.67.71 1 1.08l1.14 1.09c.79.74 1.55 1.46 2.31 2.15a3.71 3.71 0 0 1 .28.26c.79.69 1.6 1.34 2.41 2s1.73 1.36 2.61 2 1.81 1.25 2.69 1.83a.39.39 0 0 0 .21.16c.88.56 1.78 1.14 2.7 1.67s1.95 1.13 2.92 1.62 2 1 3 1.5c1.18.56 2.38 1.09 3.61 1.58.85.37 1.73.69 2.64 1a72.42 72.42 0 0 0 13.81 3.4c1 .11 2 .23 2.92.32 2.34.23 4.7.37 7.08.37h12.61c1.55 0 3.08 0 4.63-.16.81 0 1.65-.14 2.48-.21 1.29-.11 2.61-.28 3.91-.48 1-.17 1.94-.33 2.94-.54s1.78-.37 2.66-.55c1.34-.33 2.69-.7 4-1.11 1.09-.33 2.18-.7 3.24-1s1.85-.7 2.76-1.07c.39-.16.81-.32 1.18-.49 1.82-.76 3.61-1.61 5.34-2.54a72.71 72.71 0 0 0 8.52-5.28 65.67 65.67 0 0 0 5.18-4.14c.81-.72 1.62-1.48 2.43-2.27 1.09-1 2.2-2.13 3.24-3.26s2.06-2.32 3-3.54c.63-.81 1.28-1.62 1.88-2.48s1.06-1.46 1.57-2.17c.63-1 1.28-2 1.88-3 1.09-1.78 2.06-3.61 3-5.46h-37.48c-.49.4-1 .81-1.46 1.16a2.19 2.19 0 0 1-.23.21c-.76.6-1.57 1.18-2.43 1.78-.11.09-.28.16-.46.28-.79.53-1.64 1.06-2.5 1.59-1.18.68-2.38 1.32-3.66 1.95-.71.35-1.46.69-2.22 1-.12 0-.28.11-.44.16L346 278a50.86 50.86 0 0 1-6.62 2c-1 .21-2 .4-3 .56a3.53 3.53 0 0 1-.86.16c-1.13.16-2.31.3-3.47.37s-2.57.16-3.86.16h-.07c-1.55 0-3.08-.07-4.63-.2a50.44 50.44 0 0 1-15-3.75h-.05a49.66 49.66 0 0 1-3.95-1.92 1.23 1.23 0 0 1-.37-.21A21.22 21.22 0 0 1 302 274c-.69-.41-1.39-.85-2.06-1.29-1.34-.93-2.64-1.9-3.86-2.92a3.28 3.28 0 0 1-.56-.44c-1.06-.9-2.08-1.83-3.05-2.8a50.19 50.19 0 0 1-14.58-31.8h127.62V202.6a71.14 71.14 0 0 0-71.12-71.17zM277.76 207a50.42 50.42 0 0 1 100.7 0z
M765.87 57.14v89.66a70.33 70.33 0 0 0-44.08-15.37h-12.62A71.14 71.14 0 0 0 638 202.55V238a71.12 71.12 0 0 0 71.14 71.09h12.62a71.06 71.06 0 0 0 71.1-71.09V57.14zm0 173.76a50.42 50.42 0 1 1-100.83 0v-21.25a50.42 50.42 0 1 1 100.83 0z
M914.68 131.43h-12.61A71.11 71.11 0 0 0 831 202.55V238a71.09 71.09 0 0 0 71.12 71.12h12.61A71.09 71.09 0 0 0 985.78 238v-35.45a71.1 71.1 0 0 0-71.1-71.12zm44.11 99.47a50.42 50.42 0 1 1-100.83 0v-21.25a50.42 50.42 0 1 1 100.83 0z" fill="#124734"/>
</svg>